<svg xmlns="http://www.w3.org/2000/svg" viewBox="0 11.988723754882812 185.7899932861328 38.79127502441406" data-asc="0.9931640625" width="185.7899932861328" height="38.79127502441406"><defs/><g><g><g transform="translate(0, 0)"><path d="M3.96 14.16Q4.15 14.11 4.30 14.01Q4.44 13.92 4.64 13.92Q4.79 13.96 4.86 14.11Q4.93 14.26 5.08 14.36Q5.22 14.26 5.35 14.16Q5.47 14.06 5.62 14.01Q6.10 14.16 6.15 14.50Q6.40 14.60 6.59 14.72Q6.79 14.84 7.03 14.89Q7.13 15.09 7.28 15.19Q7.42 15.28 7.62 15.48Q8.11 15.58 8.91 16.02Q9.72 16.46 10.21 16.70Q10.69 16.94 11.18 17.19Q11.67 17.43 12.11 17.72Q12.55 17.97 12.99 18.29Q13.43 18.60 13.92 18.80Q14.36 19.34 15.04 19.48Q15.72 19.63 16.26 20.02Q16.70 20.26 17.09 20.53Q17.48 20.80 17.87 21.04Q18.02 21.29 18.24 21.44Q18.46 21.58 18.65 21.83Q19.63 22.36 19.78 22.66Q19.92 22.75 20.21 22.95Q20.51 23.14 20.80 23.36Q21.09 23.58 21.34 23.80Q21.58 24.02 21.63 24.22Q21.44 24.66 21.44 24.93Q21.44 25.20 21.24 25.39Q21.53 25.78 21.53 26.12Q21.29 26.71 20.70 27.10Q20.56 27.49 20.24 27.71Q19.92 27.93 19.82 28.32Q19.43 28.56 19.36 28.71Q19.29 28.86 19.19 29.00Q18.26 29.98 17.46 30.69Q16.65 31.40 15.97 32.23Q15.48 32.47 15.14 32.84Q14.79 33.20 14.50 33.64Q14.11 34.03 13.75 34.40Q13.38 34.77 12.99 35.11Q12.89 35.30 12.67 35.42Q12.45 35.55 12.35 35.79Q11.82 36.04 11.47 36.47Q11.13 36.91 10.64 37.21L10.30 37.70Q10.16 37.79 9.89 38.01Q9.62 38.23 9.35 38.50Q9.08 38.77 8.89 39.01Q8.69 39.26 8.64 39.40Q8.50 39.45 8.18 39.70Q7.86 39.94 7.54 40.23Q7.23 40.53 6.96 40.82Q6.69 41.11 6.64 41.21L6.15 41.55Q6.20 42.87 6.23 44.21Q6.25 45.56 6.25 46.88L6.25 48.54L5.91 48.97Q5.66 48.97 5.52 48.88Q5.37 48.78 5.18 48.78Q4.98 48.78 4.81 48.97Q4.64 49.17 4.49 49.27Q4.15 49.32 3.93 49.44Q3.71 49.56 3.47 49.66Q3.17 49.51 2.88 49.51Q2.25 49.66 2.27 49.56Q2.29 49.46 2.05 49.46Q1.66 49.85 1.56 49.85Q1.37 49.85 1.20 49.90Q1.03 49.95 0.83 49.95Q0.63 49.56 0.51 49.15Q0.39 48.73 0.05 48.34Q0.20 47.85 0 47.66Q0.29 47.12 0.24 46.44Q0.20 45.75 0.20 45.17Q0.20 44.82 0.22 44.51Q0.24 44.19 0.24 43.90Q0.24 43.31 0.15 42.70Q0.05 42.09 0.05 41.46Q0.05 39.99 0.15 38.50Q0.24 37.01 0.24 35.55Q0.24 34.72 0.17 33.84Q0.10 32.96 0.10 32.13Q0.10 31.59 0.15 31.13Q0.20 30.66 0.24 30.22Q0.24 27.98 0.32 25.90Q0.39 23.83 0.39 21.78Q0.39 21.09 0.37 20.48Q0.34 19.87 0.34 19.19Q0.34 18.85 0.39 18.51Q0.44 18.16 0.44 17.82Q0.59 16.31 0.59 14.79L0.54 14.01Q0.73 13.72 1.12 13.72Q1.66 13.72 1.95 14.06Q2.29 14.01 2.61 13.94Q2.93 13.87 3.22 13.87Q3.66 13.87 3.96 14.16M6.84 21.92Q6.84 22.17 6.79 22.29Q6.74 22.41 6.69 22.51Q6.69 22.66 6.71 22.83Q6.74 23.00 6.74 23.19Q6.74 24.32 6.71 25.42Q6.69 26.51 6.69 27.59L6.59 30.18Q6.59 30.42 6.64 30.71Q6.69 31.01 6.69 31.25Q6.69 31.49 6.64 31.74Q6.59 31.98 6.59 32.23Q6.59 32.86 6.74 33.50Q6.98 33.40 7.08 33.18Q7.18 32.96 7.32 32.81Q8.45 31.79 9.42 30.66Q10.40 29.54 11.43 28.42Q12.30 27.49 12.94 26.90Q13.57 26.32 13.92 25.49Q13.09 24.95 12.21 24.39Q11.33 23.83 10.35 23.44Q10.30 23.34 10.08 23.19Q9.86 23.05 9.62 22.92Q9.38 22.80 9.13 22.71Q8.89 22.61 8.79 22.61Q8.35 22.22 7.86 22.12Q7.52 22.12 7.28 22.00Q7.03 21.88 6.93 21.78L6.84 21.92ZM26.03 48.88Q25.88 48.97 25.73 49.07Q25.59 49.17 25.44 49.27Q24.90 49.56 24.46 49.58Q24.02 49.61 23.49 50.10Q23.29 49.85 23.19 49.85Q23.10 49.85 22.85 49.85Q22.22 49.85 22.12 49.51Q21.92 49.56 21.51 49.76Q21.09 49.95 20.90 50.05Q21.34 49.41 21.48 49.07Q21.63 48.73 21.66 48.44Q21.68 48.14 21.70 47.83Q21.73 47.51 21.92 46.92Q22.02 46.73 22.07 46.53Q22.12 46.34 22.22 46.09Q22.46 45.36 22.63 44.43Q22.80 43.51 23.19 42.82Q23.19 41.99 23.56 41.26Q23.93 40.53 24.17 39.75Q24.27 39.45 24.44 39.16Q24.61 38.87 24.71 38.57Q24.90 38.09 25.02 37.62Q25.15 37.16 25.29 36.72Q25.68 35.30 26.07 33.91Q26.46 32.52 26.81 31.10Q26.86 30.86 26.93 30.57Q27.00 30.27 27.10 30.03Q27.34 29.30 27.42 28.54Q27.49 27.78 27.88 27.10Q27.83 26.76 27.91 26.46Q27.98 26.17 28.08 25.83Q28.17 25.49 28.27 25.20Q28.37 24.90 28.42 24.76Q28.66 24.12 28.78 23.61Q28.91 23.10 29.30 22.51Q29.30 22.51 29.44 22.00Q29.59 21.48 29.79 20.85Q29.98 20.21 30.13 19.65Q30.27 19.09 30.27 18.99Q30.37 18.60 30.44 18.26Q30.52 17.92 30.62 17.53Q30.71 17.29 30.81 17.11Q30.91 16.94 31.01 16.70Q31.15 16.16 31.30 15.38Q31.45 14.60 31.69 14.16Q31.84 13.82 32.25 13.60Q32.67 13.38 32.96 13.13Q33.84 13.23 34.25 13.04Q34.67 12.84 35.06 12.55Q35.30 12.60 35.52 12.67Q35.74 12.74 35.99 12.74Q36.91 13.77 37.28 14.84Q37.65 15.92 37.99 16.99Q38.13 17.53 38.28 18.04Q38.43 18.55 38.62 19.04Q38.67 19.19 38.77 19.36Q38.87 19.53 38.96 19.73Q39.21 20.12 39.38 20.56Q39.55 21.00 39.70 21.44Q39.99 21.78 40.14 22.24Q40.28 22.71 40.41 23.17Q40.53 23.63 40.67 24.05Q40.82 24.46 41.11 24.76Q41.21 25.29 41.46 25.81Q41.70 26.32 41.80 26.90Q42.09 27.29 42.48 28.39Q42.87 29.49 43.26 30.76Q43.65 32.03 43.99 33.20Q44.34 34.38 44.48 34.86Q44.58 35.25 44.87 35.86Q45.17 36.47 45.41 36.96Q45.61 37.50 45.83 38.09Q46.04 38.67 46.19 39.21Q46.29 39.75 46.41 40.23Q46.53 40.72 46.68 41.26Q46.78 41.60 46.97 41.87Q47.17 42.14 47.27 42.53Q47.46 42.92 47.53 43.26Q47.61 43.60 47.85 43.99Q47.80 44.53 47.90 44.68Q48.00 44.82 48.10 45.02Q48.29 46.04 48.54 46.66Q48.78 47.27 48.78 47.95Q48.78 48.54 48.56 48.68Q48.34 48.83 48.00 49.17Q47.61 49.51 47.34 49.71Q47.07 49.90 46.53 49.90Q45.95 49.85 45.83 50.07Q45.70 50.29 45.65 50.39Q45.07 50.34 44.90 50.37Q44.73 50.39 44.56 50.39Q44.38 50.39 44.21 50.46Q44.04 50.54 43.85 50.78Q43.51 50.39 43.19 50.07Q42.87 49.76 42.63 49.37Q42.63 48.54 42.41 47.41Q42.19 46.29 41.94 45.65Q41.46 44.38 41.04 43.16Q40.63 41.94 40.23 40.67Q40.09 40.14 39.92 39.70Q39.75 39.26 39.55 38.77Q39.65 39.16 39.62 39.58Q39.60 39.99 39.36 40.38Q39.26 40.48 39.06 40.63Q38.87 40.77 38.87 40.87Q38.28 41.36 37.84 41.80Q37.89 42.68 37.60 43.02Q37.30 43.36 36.96 43.65Q36.13 43.70 35.94 43.55Q35.74 43.41 35.40 43.36Q35.21 43.31 35.01 43.33Q34.81 43.36 34.62 43.36Q34.23 43.36 33.89 43.16Q33.74 43.07 33.67 42.97Q33.59 42.87 33.50 42.77Q33.11 42.38 32.59 42.11Q32.08 41.85 31.59 41.65Q31.20 41.31 30.79 40.94Q30.37 40.58 29.93 40.33Q29.54 41.26 29.32 41.97Q29.10 42.68 28.81 43.36Q28.27 45.02 27.93 46.26Q27.59 47.51 27.15 48.78Q26.95 48.83 26.78 48.93Q26.61 49.02 26.37 49.02L26.03 48.88M30.81 38.48Q31.20 37.79 31.52 37.72Q31.84 37.65 32.08 37.35Q32.18 37.26 32.30 37.11Q32.42 36.96 32.57 36.82Q32.71 36.72 32.91 36.62Q33.11 36.52 33.25 36.38Q33.64 36.04 33.91 35.79Q34.18 35.55 34.72 35.55Q35.55 35.55 36.08 35.96Q36.62 36.38 37.40 36.52Q37.50 36.82 38.04 36.94Q38.57 37.06 38.87 37.26Q38.38 36.04 38.11 34.79Q37.84 33.54 37.45 32.32Q37.16 31.25 36.77 30.20Q36.38 29.15 35.99 28.17Q35.64 27.20 35.40 26.27Q35.16 25.34 34.77 24.46Q34.38 25.34 33.98 26.61Q33.59 27.88 33.40 28.86Q33.40 29.30 33.35 29.54Q33.25 29.88 33.15 30.15Q33.06 30.42 32.96 30.71Q32.32 32.62 31.81 34.57Q31.30 36.52 30.62 38.48L30.81 38.48ZM59.52 36.33Q59.62 36.57 60.25 37.38Q60.89 38.18 61.69 39.14Q62.50 40.09 63.28 40.97Q64.06 41.85 64.36 42.24Q65.28 43.60 66.26 44.92Q67.24 46.24 68.12 47.66Q68.36 47.90 68.51 48.27Q68.65 48.63 68.65 49.02Q68.65 49.46 68.43 49.49Q68.21 49.51 67.97 49.61Q67.48 49.95 67.09 50Q66.70 50.05 66.46 50.05Q65.92 50.05 65.28 50.02Q64.65 50 64.21 50.10Q64.06 50.15 63.87 50.27Q63.67 50.39 63.57 50.39Q63.18 50.39 63.01 50.27Q62.84 50.15 62.55 50.05Q62.16 49.61 61.84 49.12Q61.52 48.63 61.18 48.14Q60.89 47.80 60.55 47.53Q60.21 47.27 59.91 46.88Q59.13 45.75 58.33 44.73Q57.52 43.70 56.69 42.68Q56.30 42.14 55.83 41.65Q55.37 41.16 54.98 40.67Q54.59 40.14 54.25 39.55Q53.91 38.96 53.52 38.43Q53.22 37.94 52.69 37.23Q52.15 36.52 51.56 35.79Q50.98 35.06 50.37 34.40Q49.76 33.74 49.32 33.40Q49.32 33.06 49.12 32.91Q48.93 32.76 48.68 32.57Q48.58 32.32 48.44 32.10Q48.29 31.88 48.29 31.59Q48.29 31.40 48.34 31.25Q48.39 31.10 48.44 30.96Q48.54 30.76 48.56 30.59Q48.58 30.42 48.68 30.22Q48.93 29.59 49.39 29.10Q49.85 28.61 50.10 27.98Q50.15 27.78 50.15 27.61Q50.15 27.44 50.24 27.25Q50.39 26.95 50.68 26.66Q50.98 26.37 51.22 26.03Q51.46 25.59 51.71 25.15Q51.95 24.71 52.20 24.27Q52.88 23.14 53.71 22.09Q54.54 21.04 55.27 20.02Q55.96 19.04 56.54 18.09Q57.13 17.14 57.81 16.16Q58.15 15.67 58.59 15.06Q59.03 14.45 59.50 13.87Q59.96 13.28 60.45 12.77Q60.94 12.26 61.43 12.01Q62.26 11.91 62.50 12.28Q62.74 12.65 63.18 12.65Q63.87 12.79 64.11 13.09Q64.36 13.38 64.60 13.62Q65.23 13.62 65.67 13.87Q66.11 14.11 66.55 14.60Q66.36 15.14 66.04 15.58Q65.72 16.02 65.48 16.50Q65.09 16.65 64.92 16.99Q64.75 17.33 64.40 17.58Q63.87 18.41 63.33 19.21Q62.79 20.02 62.26 20.75Q62.01 21.04 61.69 21.22Q61.38 21.39 61.18 21.73Q61.08 21.88 61.04 22.05Q60.99 22.22 60.89 22.36Q60.30 23.29 59.57 24.17Q58.84 25.05 58.30 26.03Q58.06 26.37 57.91 26.73Q57.76 27.10 57.57 27.44Q57.37 27.73 57.01 28.27Q56.64 28.81 56.27 29.37Q55.91 29.93 55.64 30.44Q55.37 30.96 55.37 31.30Q55.42 31.54 56.01 32.28Q56.59 33.01 57.30 33.84Q58.01 34.67 58.67 35.40Q59.33 36.13 59.52 36.33ZM72.75 48.88Q72.61 48.97 72.46 49.07Q72.31 49.17 72.17 49.27Q71.63 49.56 71.19 49.58Q70.75 49.61 70.21 50.10Q70.02 49.85 69.92 49.85Q69.82 49.85 69.58 49.85Q68.95 49.85 68.85 49.51Q68.65 49.56 68.24 49.76Q67.82 49.95 67.63 50.05Q68.07 49.41 68.21 49.07Q68.36 48.73 68.38 48.44Q68.41 48.14 68.43 47.83Q68.46 47.51 68.65 46.92Q68.75 46.73 68.80 46.53Q68.85 46.34 68.95 46.09Q69.19 45.36 69.36 44.43Q69.53 43.51 69.92 42.82Q69.92 41.99 70.29 41.26Q70.65 40.53 70.90 39.75Q71.00 39.45 71.17 39.16Q71.34 38.87 71.44 38.57Q71.63 38.09 71.75 37.62Q71.88 37.16 72.02 36.72Q72.41 35.30 72.80 33.91Q73.19 32.52 73.54 31.10Q73.58 30.86 73.66 30.57Q73.73 30.27 73.83 30.03Q74.07 29.30 74.15 28.54Q74.22 27.78 74.61 27.10Q74.56 26.76 74.63 26.46Q74.71 26.17 74.80 25.83Q74.90 25.49 75 25.20Q75.10 24.90 75.15 24.76Q75.39 24.12 75.51 23.61Q75.63 23.10 76.03 22.51Q76.03 22.51 76.17 22.00Q76.32 21.48 76.51 20.85Q76.71 20.21 76.86 19.65Q77.00 19.09 77.00 18.99Q77.10 18.60 77.17 18.26Q77.25 17.92 77.34 17.53Q77.44 17.29 77.54 17.11Q77.64 16.94 77.73 16.70Q77.88 16.16 78.03 15.38Q78.17 14.60 78.42 14.16Q78.56 13.82 78.98 13.60Q79.39 13.38 79.69 13.13Q80.57 13.23 80.98 13.04Q81.40 12.84 81.79 12.55Q82.03 12.60 82.25 12.67Q82.47 12.74 82.71 12.74Q83.64 13.77 84.01 14.84Q84.38 15.92 84.72 16.99Q84.86 17.53 85.01 18.04Q85.16 18.55 85.35 19.04Q85.40 19.19 85.50 19.36Q85.60 19.53 85.69 19.73Q85.94 20.12 86.11 20.56Q86.28 21.00 86.43 21.44Q86.72 21.78 86.87 22.24Q87.01 22.71 87.13 23.17Q87.26 23.63 87.40 24.05Q87.55 24.46 87.84 24.76Q87.94 25.29 88.18 25.81Q88.43 26.32 88.53 26.90Q88.82 27.29 89.21 28.39Q89.60 29.49 89.99 30.76Q90.38 32.03 90.72 33.20Q91.06 34.38 91.21 34.86Q91.31 35.25 91.60 35.86Q91.89 36.47 92.14 36.96Q92.33 37.50 92.55 38.09Q92.77 38.67 92.92 39.21Q93.02 39.75 93.14 40.23Q93.26 40.72 93.41 41.26Q93.51 41.60 93.70 41.87Q93.90 42.14 93.99 42.53Q94.19 42.92 94.26 43.26Q94.34 43.60 94.58 43.99Q94.53 44.53 94.63 44.68Q94.73 44.82 94.82 45.02Q95.02 46.04 95.26 46.66Q95.51 47.27 95.51 47.95Q95.51 48.54 95.29 48.68Q95.07 48.83 94.73 49.17Q94.34 49.51 94.07 49.71Q93.80 49.90 93.26 49.90Q92.68 49.85 92.55 50.07Q92.43 50.29 92.38 50.39Q91.80 50.34 91.63 50.37Q91.46 50.39 91.28 50.39Q91.11 50.39 90.94 50.46Q90.77 50.54 90.58 50.78Q90.23 50.39 89.92 50.07Q89.60 49.76 89.36 49.37Q89.36 48.54 89.14 47.41Q88.92 46.29 88.67 45.65Q88.18 44.38 87.77 43.16Q87.35 41.94 86.96 40.67Q86.82 40.14 86.65 39.70Q86.47 39.26 86.28 38.77Q86.38 39.16 86.35 39.58Q86.33 39.99 86.08 40.38Q85.99 40.48 85.79 40.63Q85.60 40.77 85.60 40.87Q85.01 41.36 84.57 41.80Q84.62 42.68 84.33 43.02Q84.03 43.36 83.69 43.65Q82.86 43.70 82.67 43.55Q82.47 43.41 82.13 43.36Q81.93 43.31 81.74 43.33Q81.54 43.36 81.35 43.36Q80.96 43.36 80.62 43.16Q80.47 43.07 80.40 42.97Q80.32 42.87 80.22 42.77Q79.83 42.38 79.32 42.11Q78.81 41.85 78.32 41.65Q77.93 41.31 77.51 40.94Q77.10 40.58 76.66 40.33Q76.27 41.26 76.05 41.97Q75.83 42.68 75.54 43.36Q75 45.02 74.66 46.26Q74.32 47.51 73.88 48.78Q73.68 48.83 73.51 48.93Q73.34 49.02 73.10 49.02L72.75 48.88M77.54 38.48Q77.93 37.79 78.25 37.72Q78.56 37.65 78.81 37.35Q78.91 37.26 79.03 37.11Q79.15 36.96 79.30 36.82Q79.44 36.72 79.64 36.62Q79.83 36.52 79.98 36.38Q80.37 36.04 80.64 35.79Q80.91 35.55 81.45 35.55Q82.28 35.55 82.81 35.96Q83.35 36.38 84.13 36.52Q84.23 36.82 84.77 36.94Q85.30 37.06 85.60 37.26Q85.11 36.04 84.84 34.79Q84.57 33.54 84.18 32.32Q83.89 31.25 83.50 30.20Q83.11 29.15 82.71 28.17Q82.37 27.20 82.13 26.27Q81.88 25.34 81.49 24.46Q81.10 25.34 80.71 26.61Q80.32 27.88 80.13 28.86Q80.13 29.30 80.08 29.54Q79.98 29.88 79.88 30.15Q79.79 30.42 79.69 30.71Q79.05 32.62 78.54 34.57Q78.03 36.52 77.34 38.48L77.54 38.48ZM118.16 14.75Q118.07 14.94 118.09 15.14Q118.12 15.33 118.12 15.58Q118.02 16.16 118.12 16.16Q118.21 16.16 118.21 16.26L117.87 16.75Q117.87 17.04 117.75 17.29Q117.63 17.53 117.68 17.87Q117.53 18.12 117.41 18.36Q117.29 18.60 117.04 18.85L116.41 18.85Q115.87 18.85 115.26 18.92Q114.65 18.99 114.06 18.99Q113.96 18.99 113.82 18.97Q113.67 18.95 113.53 18.95Q113.43 18.95 113.28 18.97Q113.13 18.99 112.94 18.99Q112.21 18.99 111.50 18.92Q110.79 18.85 110.01 18.85Q109.81 18.85 109.62 18.85Q109.42 18.85 109.18 18.90Q109.13 19.73 109.11 20.58Q109.08 21.44 109.08 22.31Q109.08 22.56 109.03 22.83Q108.98 23.10 108.98 23.34Q108.94 23.97 108.91 24.56Q108.89 25.15 108.89 25.78Q108.89 27.15 108.91 28.52Q108.94 29.88 108.98 31.30Q109.03 32.03 109.08 32.71Q109.13 33.40 109.13 34.13Q109.13 35.79 109.08 37.43Q109.03 39.06 109.03 40.72Q109.03 41.26 108.98 41.72Q108.94 42.19 108.94 42.72Q108.94 43.85 108.98 44.97Q109.03 46.09 109.03 47.22Q109.03 47.75 109.01 48.29Q108.98 48.83 108.98 49.37Q108.74 49.76 108.64 50.05Q108.54 50.34 108.06 50.34Q107.71 50.24 107.74 50.12Q107.76 50 107.67 49.90Q107.23 49.85 107.01 49.98Q106.79 50.10 106.49 50.20Q106.35 50.15 106.18 50.15Q106.01 50.15 105.86 50.15Q105.76 50.15 105.66 50.22Q105.57 50.29 105.22 50.29Q104.93 50.34 104.88 50.20Q104.83 50.05 104.59 50.05Q104.35 50.20 104.03 50.27Q103.71 50.34 103.42 50.34Q103.13 50.15 103.15 49.98Q103.17 49.80 103.08 49.61Q103.03 49.51 102.91 49.34Q102.78 49.17 102.69 49.07Q102.78 48.39 102.83 47.85Q102.88 47.31 102.88 46.68Q102.88 45.41 102.78 44.19Q102.69 42.97 102.69 41.70Q102.69 41.31 102.78 40.87Q102.88 40.43 102.88 39.94Q102.78 39.55 102.83 39.48Q102.88 39.40 102.88 39.31Q102.88 39.01 102.86 38.72Q102.83 38.43 102.83 38.13Q102.83 37.55 102.86 36.96Q102.88 36.38 102.88 35.79Q102.88 35.55 102.86 35.28Q102.83 35.01 102.83 34.77Q102.78 34.33 102.81 33.84Q102.83 33.35 102.83 32.86Q102.83 30.52 102.76 28.22Q102.69 25.93 102.69 23.58Q102.69 22.46 102.81 21.29Q102.93 20.12 102.93 18.95Q102.93 18.80 102.83 18.55Q102.73 18.31 102.64 18.21Q102.39 18.21 102.17 18.19Q101.95 18.16 101.71 18.16Q101.17 18.16 100.68 18.31Q99.76 18.36 98.90 18.43Q98.05 18.51 97.17 18.55Q96.58 18.51 96.46 18.53Q96.34 18.55 96.19 18.55Q95.80 18.55 95.61 18.36L95.61 17.72Q95.31 17.14 95.36 17.09Q95.41 17.04 95.41 16.94Q95.41 16.80 95.14 16.63Q94.87 16.46 94.87 16.06Q94.82 15.67 94.68 15.48Q94.53 15.28 94.53 15.09Q94.53 14.75 94.68 14.31Q95.12 14.06 95.53 13.96Q95.95 13.87 96.48 13.72Q96.78 13.62 97.02 13.53Q97.27 13.43 97.56 13.38Q97.90 13.33 98.24 13.33Q98.58 13.33 98.93 13.28Q99.66 13.13 100.46 13.04Q101.27 12.94 102.00 12.94Q102.69 12.94 103.37 13.11Q104.05 13.28 104.59 13.28Q105.37 13.28 106.08 13.38Q106.79 13.48 107.57 13.48Q107.67 13.48 107.89 13.55Q108.11 13.62 108.40 13.62L113.13 13.62Q113.53 13.72 113.70 13.67Q113.87 13.62 114.01 13.62Q114.40 13.62 114.75 13.67Q115.09 13.72 115.48 13.72Q115.82 13.72 116.02 13.67Q116.41 13.72 116.75 13.89Q117.09 14.06 117.53 14.06Q117.72 14.21 117.82 14.43Q117.92 14.65 118.16 14.75ZM137.60 42.82Q137.99 43.46 138.18 44.04Q138.38 44.63 138.38 44.87Q138.38 45.21 138.26 45.43Q138.13 45.65 137.94 45.90Q135.99 46.73 134.06 47.44Q132.13 48.14 130.13 48.83Q129.64 48.97 129.17 49.15Q128.71 49.32 128.17 49.41Q128.08 49.51 127.83 49.61Q127.59 49.71 127.27 49.80Q126.95 49.90 126.66 49.98Q126.37 50.05 126.27 50.05Q126.17 49.80 126.07 49.76Q125.98 49.71 125.88 49.66Q125.63 49.66 125.56 49.83Q125.49 50 125.24 50.10Q125 50.10 124.80 50.12Q124.61 50.15 124.46 50.05Q124.07 50.15 123.75 50.39Q123.44 50.63 123.05 50.73Q122.31 50.54 122.14 50.56Q121.97 50.59 121.78 50.63Q121.44 50.34 121.46 49.80Q121.48 49.27 121.19 48.93Q121.19 48.29 121.09 48.22Q121.00 48.14 121.00 48.05Q121.00 47.71 121.04 47.41Q121.09 47.12 121.00 46.78Q121.19 45.95 121.14 45.17Q121.09 44.38 121.19 43.60Q121.19 43.36 121.22 43.14Q121.24 42.92 121.24 42.68Q121.24 41.94 121.34 41.77Q121.44 41.60 121.44 41.36Q121.44 41.02 121.41 40.70Q121.39 40.38 121.39 39.99Q121.39 39.31 121.41 38.65Q121.44 37.99 121.44 37.26Q121.44 35.40 121.19 33.54Q120.95 31.69 120.95 29.83Q120.95 27.59 120.70 25.39Q120.46 23.19 120.46 20.95Q120.46 20.56 120.46 19.85Q120.46 19.14 120.46 18.38Q120.46 17.63 120.48 16.94Q120.51 16.26 120.56 15.97Q120.56 15.92 120.85 15.82Q121.14 15.72 121.24 15.72Q121.48 15.72 121.63 15.84Q121.78 15.97 121.97 16.06Q122.85 15.97 123.02 15.89Q123.19 15.82 123.29 15.82Q123.58 15.82 123.75 15.97Q123.93 16.11 124.02 16.11Q124.85 15.92 124.93 16.06Q125 16.21 125.24 16.21Q125.88 16.02 126.03 16.06Q126.17 16.11 126.32 16.11Q126.56 16.11 126.86 15.94Q127.15 15.77 127.39 15.67Q128.22 15.43 128.76 15.19Q129.49 14.75 129.86 14.60Q130.22 14.45 130.62 14.26Q131.45 13.92 132.20 13.55Q132.96 13.18 133.79 12.79Q133.94 12.79 134.11 12.77Q134.28 12.74 134.38 12.65Q134.52 12.70 134.69 12.70Q134.86 12.70 135.01 12.70Q135.50 12.89 135.64 12.94Q135.84 13.23 136.01 13.50Q136.18 13.77 136.43 14.01Q136.67 14.45 136.82 14.45Q136.82 14.60 136.67 14.77Q136.52 14.94 136.52 15.09Q136.91 15.77 137.16 16.36Q137.40 16.94 137.40 17.19Q137.40 17.53 137.30 17.75Q137.21 17.97 137.06 18.21Q135.21 19.09 133.33 19.95Q131.45 20.80 129.49 21.63Q129.00 21.83 128.56 22.05Q128.13 22.27 127.59 22.36Q127.49 22.46 127.15 22.53Q126.81 22.61 126.61 22.61Q126.71 23.44 126.73 24.24Q126.76 25.05 126.81 25.88Q126.86 26.56 126.98 27.32Q127.10 28.08 127.20 28.81Q128.81 28.13 130.40 27.44Q131.98 26.76 133.59 26.07Q133.89 26.12 134.20 26.17Q134.52 26.22 134.81 26.32Q134.91 26.42 135.01 26.56Q135.11 26.71 135.25 26.81Q135.21 27.05 135.57 27.54Q135.94 28.03 135.94 28.27Q135.94 28.66 136.04 28.74Q136.13 28.81 136.23 29.15Q136.28 29.64 136.23 29.69Q136.47 29.93 136.62 30.18Q136.77 30.42 136.77 30.76Q136.08 31.59 135.40 31.86Q134.72 32.13 134.03 32.42Q133.79 32.52 133.52 32.69Q133.25 32.86 133.01 32.96Q132.62 33.11 132.25 33.23Q131.88 33.35 131.49 33.54Q130.86 33.89 130.20 34.30Q129.54 34.72 128.86 34.86Q128.32 35.01 128.15 35.18Q127.98 35.35 127.59 35.64L127.59 36.96L127.59 39.40Q127.59 39.89 127.59 40.41Q127.59 40.92 127.54 41.46Q127.44 41.94 127.44 42.29L127.44 43.07Q127.69 42.97 127.93 42.90Q128.17 42.82 128.42 42.72Q128.61 42.68 128.78 42.68Q128.96 42.68 129.15 42.58Q129.39 42.53 129.54 42.48Q129.69 42.43 129.88 42.33Q130.62 41.94 131.01 41.82Q131.40 41.70 131.79 41.55Q132.62 41.26 133.40 40.94Q134.18 40.63 134.96 40.33Q135.45 40.43 135.64 40.19Q135.89 40.23 136.06 40.28Q136.23 40.33 136.47 40.33Q137.06 40.87 137.21 41.16Q137.35 41.46 137.60 41.70Q137.84 42.14 137.94 42.14Q137.94 42.24 137.79 42.46Q137.65 42.68 137.60 42.82ZM151.12 36.33Q151.22 36.57 151.86 37.38Q152.49 38.18 153.30 39.14Q154.10 40.09 154.88 40.97Q155.66 41.85 155.96 42.24Q156.88 43.60 157.86 44.92Q158.84 46.24 159.72 47.66Q159.96 47.90 160.11 48.27Q160.25 48.63 160.25 49.02Q160.25 49.46 160.03 49.49Q159.81 49.51 159.57 49.61Q159.08 49.95 158.69 50Q158.30 50.05 158.06 50.05Q157.52 50.05 156.88 50.02Q156.25 50 155.81 50.10Q155.66 50.15 155.47 50.27Q155.27 50.39 155.18 50.39Q154.79 50.39 154.61 50.27Q154.44 50.15 154.15 50.05Q153.76 49.61 153.44 49.12Q153.13 48.63 152.78 48.14Q152.49 47.80 152.15 47.53Q151.81 47.27 151.51 46.88Q150.73 45.75 149.93 44.73Q149.12 43.70 148.29 42.68Q147.90 42.14 147.44 41.65Q146.97 41.16 146.58 40.67Q146.19 40.14 145.85 39.55Q145.51 38.96 145.12 38.43Q144.82 37.94 144.29 37.23Q143.75 36.52 143.16 35.79Q142.58 35.06 141.97 34.40Q141.36 33.74 140.92 33.40Q140.92 33.06 140.72 32.91Q140.53 32.76 140.28 32.57Q140.19 32.32 140.04 32.10Q139.89 31.88 139.89 31.59Q139.89 31.40 139.94 31.25Q139.99 31.10 140.04 30.96Q140.14 30.76 140.16 30.59Q140.19 30.42 140.28 30.22Q140.53 29.59 140.99 29.10Q141.46 28.61 141.70 27.98Q141.75 27.78 141.75 27.61Q141.75 27.44 141.85 27.25Q141.99 26.95 142.29 26.66Q142.58 26.37 142.82 26.03Q143.07 25.59 143.31 25.15Q143.55 24.71 143.80 24.27Q144.48 23.14 145.31 22.09Q146.14 21.04 146.88 20.02Q147.56 19.04 148.14 18.09Q148.73 17.14 149.41 16.16Q149.76 15.67 150.20 15.06Q150.63 14.45 151.10 13.87Q151.56 13.28 152.05 12.77Q152.54 12.26 153.03 12.01Q153.86 11.91 154.10 12.28Q154.35 12.65 154.79 12.65Q155.47 12.79 155.71 13.09Q155.96 13.38 156.20 13.62Q156.84 13.62 157.28 13.87Q157.71 14.11 158.15 14.60Q157.96 15.14 157.64 15.58Q157.32 16.02 157.08 16.50Q156.69 16.65 156.52 16.99Q156.35 17.33 156.01 17.58Q155.47 18.41 154.93 19.21Q154.39 20.02 153.86 20.75Q153.61 21.04 153.30 21.22Q152.98 21.39 152.78 21.73Q152.69 21.88 152.64 22.05Q152.59 22.22 152.49 22.36Q151.90 23.29 151.17 24.17Q150.44 25.05 149.90 26.03Q149.66 26.37 149.51 26.73Q149.37 27.10 149.17 27.44Q148.97 27.73 148.61 28.27Q148.24 28.81 147.88 29.37Q147.51 29.93 147.24 30.44Q146.97 30.96 146.97 31.30Q147.02 31.54 147.61 32.28Q148.19 33.01 148.90 33.84Q149.61 34.67 150.27 35.40Q150.93 36.13 151.12 36.33ZM183.54 13.53Q184.13 13.38 184.38 13.40Q184.62 13.43 184.86 13.48Q185.16 13.67 185.35 13.96Q185.35 14.99 185.33 15.99Q185.30 16.99 185.30 18.02Q185.30 19.87 185.35 21.73Q185.40 23.58 185.35 25.44Q185.45 25.88 185.40 25.93Q185.35 25.98 185.35 26.07Q185.35 27.93 185.45 29.74Q185.55 31.54 185.55 33.40L185.55 39.89Q185.55 41.99 185.67 44.04Q185.79 46.09 185.79 48.14Q185.79 48.34 185.55 48.68Q185.45 49.07 185.25 49.32Q184.81 49.37 184.42 49.17Q184.23 49.17 184.16 49.29Q184.08 49.41 183.94 49.51Q183.54 49.51 183.30 49.71Q183.06 49.90 182.71 49.90Q182.42 49.90 182.15 49.83Q181.88 49.76 181.54 49.76Q181.45 49.76 181.25 49.93Q181.05 50.10 180.96 50.15Q180.71 50.15 180.52 50.22Q180.32 50.29 180.08 50.29Q179.83 50.10 179.86 49.71Q179.88 49.32 179.54 49.22Q179.54 48.97 179.57 48.68Q179.59 48.39 179.59 48.10Q179.59 46.19 179.49 44.26Q179.39 42.33 179.35 40.43Q179.30 39.60 179.32 38.79Q179.35 37.99 179.35 37.16Q179.35 36.72 179.35 36.28Q179.35 35.84 179.25 35.45Q178.96 35.40 178.74 35.52Q178.52 35.64 178.27 35.64Q177.25 35.99 176.90 36.33Q176.61 36.33 176.42 36.43Q176.22 36.52 175.98 36.62Q175.59 36.72 175.22 36.79Q174.85 36.87 174.46 37.01Q174.22 37.11 173.97 37.21Q173.73 37.30 173.49 37.40Q172.95 37.60 172.41 37.77Q171.88 37.94 171.34 38.13Q170.80 38.23 170.41 38.43Q170.02 38.62 169.63 38.82Q169.29 41.11 169.26 43.19Q169.24 45.26 169.38 47.31Q169.29 47.61 169.29 47.97Q169.29 48.34 169.14 48.58Q168.60 48.73 168.43 48.61Q168.26 48.49 168.07 48.39Q167.87 48.44 167.75 48.58Q167.63 48.73 167.53 48.83Q167.14 48.83 166.92 49.00Q166.70 49.17 166.50 49.27Q166.36 49.32 166.21 49.27Q166.06 49.22 165.87 49.32Q165.38 49.32 165.41 49.19Q165.43 49.07 165.28 49.07Q165.09 49.07 165.01 49.24Q164.94 49.41 164.75 49.51Q164.55 49.61 164.31 49.63Q164.06 49.66 163.82 49.76Q163.57 49.51 163.57 49.22Q163.57 48.93 163.33 48.68Q163.23 48.00 163.21 47.34Q163.18 46.68 163.04 46.00Q163.13 44.63 163.11 43.80Q163.09 42.97 163.09 42.09Q163.09 41.31 163.04 40.53Q162.99 39.75 162.94 38.96Q162.84 37.55 162.77 36.08Q162.70 34.62 162.70 33.15Q162.70 31.93 162.82 30.76Q162.94 29.59 162.94 28.37Q162.94 27.54 162.96 26.73Q162.99 25.93 162.99 25.10Q162.99 24.41 162.96 23.75Q162.94 23.10 162.94 22.46Q162.94 21.73 163.04 21.02Q163.13 20.31 163.13 19.63Q163.13 18.80 163.04 17.99Q162.94 17.19 162.94 16.36Q162.94 16.11 162.99 15.89Q163.04 15.67 163.04 15.43Q162.99 14.89 163.09 14.77Q163.18 14.65 163.28 14.45Q163.53 14.40 163.82 14.31Q164.11 14.21 164.36 14.31Q164.65 14.01 165.16 14.01Q165.67 14.01 165.92 13.67Q166.26 13.72 166.38 13.70Q166.50 13.67 166.60 13.67Q167.04 13.77 167.07 13.65Q167.09 13.53 167.24 13.53Q167.48 13.53 167.99 13.55Q168.51 13.57 168.70 13.77Q169.19 16.36 169.24 19.04Q169.29 21.73 169.29 24.37Q169.29 25.05 169.34 25.76Q169.38 26.46 169.29 27.15Q169.29 27.44 169.24 27.71Q169.19 27.98 169.19 28.27Q169.19 29.10 169.09 30.00Q168.99 30.91 168.99 31.74Q169.58 32.08 170.00 31.96Q170.41 31.84 170.80 31.69Q171.29 31.54 171.70 31.37Q172.12 31.20 172.56 31.05Q172.95 30.86 173.41 30.74Q173.88 30.62 174.27 30.52Q175.54 30.08 176.76 29.44Q177.98 28.81 179.25 28.42Q179.15 25.73 179.15 23.07Q179.15 20.41 179.15 17.77Q179.15 17.04 179.15 16.26Q179.15 15.48 179.25 14.75Q179.30 14.55 179.37 14.43Q179.44 14.31 179.44 14.06Q179.59 13.82 179.79 13.72Q179.98 13.62 180.08 13.43Q180.18 13.53 180.30 13.60Q180.42 13.67 180.57 13.72Q180.96 13.62 181.03 13.57Q181.10 13.53 181.20 13.48Q181.45 13.38 181.84 13.38Q182.23 13.38 182.47 13.38L183.06 13.38L183.54 13.53Z"/></g></g></g></svg>